<svg width="24" height="24" viewBox="0 0 24 24" fill="none" xmlns="http://www.w3.org/2000/svg">
<path opacity="0.4" d="M22.5 18C22.4953 18.7687 21.8906 19.5 20.9953 19.5H3.00374C2.10937 19.5 1.50421 18.7687 1.49999 18C1.49794 17.6214 1.64259 17.2567 1.90358 16.9823C2.80921 16.0092 4.50374 14.5448 4.50374 9.75C4.50374 6.10781 7.05749 3.19219 10.5009 2.47688V1.5C10.5009 1.10218 10.659 0.720644 10.9403 0.43934C11.2216 0.158035 11.6031 0 12.0009 0C12.3988 0 12.7803 0.158035 13.0616 0.43934C13.3429 0.720644 13.5009 1.10218 13.5009 1.5V2.47688C16.9416 3.19219 19.4953 6.10781 19.4953 9.75C19.4953 14.5453 21.1898 16.0092 22.0955 16.9823C22.3567 17.2566 22.5017 17.6213 22.5 18Z" fill="black"/>
<path d="M9.00043 21H15.0004C15.0004 21.7956 14.6844 22.5587 14.1217 23.1213C13.5591 23.6839 12.7961 24 12.0004 24C11.2048 24 10.4417 23.6839 9.87911 23.1213C9.3165 22.5587 9.00043 21.7956 9.00043 21Z" fill="black"/>
</svg>
