<svg width="24" height="24" viewBox="0 0 24 24" fill="none" xmlns="http://www.w3.org/2000/svg">
<path opacity="0.4" d="M1.5 9V21.75C1.5 22.3467 1.73705 22.919 2.15901 23.341C2.58097 23.7629 3.15326 24 3.75 24H20.25C20.8467 24 21.419 23.7629 21.841 23.341C22.2629 22.919 22.5 22.3467 22.5 21.75V9H1.5ZM7.5 20.4375C7.5 20.5867 7.44074 20.7298 7.33525 20.8352C7.22976 20.9407 7.08668 21 6.9375 21H5.0625C4.91332 21 4.77024 20.9407 4.66475 20.8352C4.55926 20.7298 4.5 20.5867 4.5 20.4375V18.5625C4.5 18.4133 4.55926 18.2702 4.66475 18.1648C4.77024 18.0593 4.91332 18 5.0625 18H6.9375C7.08668 18 7.22976 18.0593 7.33525 18.1648C7.44074 18.2702 7.5 18.4133 7.5 18.5625V20.4375ZM7.5 14.4375C7.5 14.5867 7.44074 14.7298 7.33525 14.8352C7.22976 14.9407 7.08668 15 6.9375 15H5.0625C4.91332 15 4.77024 14.9407 4.66475 14.8352C4.55926 14.7298 4.5 14.5867 4.5 14.4375V12.5625C4.5 12.4133 4.55926 12.2702 4.66475 12.1648C4.77024 12.0593 4.91332 12 5.0625 12H6.9375C7.08668 12 7.22976 12.0593 7.33525 12.1648C7.44074 12.2702 7.5 12.4133 7.5 12.5625V14.4375ZM13.5 20.4375C13.5 20.5867 13.4407 20.7298 13.3352 20.8352C13.2298 20.9407 13.0867 21 12.9375 21H11.0625C10.9133 21 10.7702 20.9407 10.6648 20.8352C10.5593 20.7298 10.5 20.5867 10.5 20.4375V18.5625C10.5 18.4133 10.5593 18.2702 10.6648 18.1648C10.7702 18.0593 10.9133 18 11.0625 18H12.9375C13.0867 18 13.2298 18.0593 13.3352 18.1648C13.4407 18.2702 13.5 18.4133 13.5 18.5625V20.4375ZM13.5 14.4375C13.5 14.5867 13.4407 14.7298 13.3352 14.8352C13.2298 14.9407 13.0867 15 12.9375 15H11.0625C10.9133 15 10.7702 14.9407 10.6648 14.8352C10.5593 14.7298 10.5 14.5867 10.5 14.4375V12.5625C10.5 12.4133 10.5593 12.2702 10.6648 12.1648C10.7702 12.0593 10.9133 12 11.0625 12H12.9375C13.0867 12 13.2298 12.0593 13.3352 12.1648C13.4407 12.2702 13.5 12.4133 13.5 12.5625V14.4375ZM19.5 20.4375C19.5 20.5867 19.4407 20.7298 19.3352 20.8352C19.2298 20.9407 19.0867 21 18.9375 21H17.0625C16.9133 21 16.7702 20.9407 16.6648 20.8352C16.5593 20.7298 16.5 20.5867 16.5 20.4375V18.5625C16.5 18.4133 16.5593 18.2702 16.6648 18.1648C16.7702 18.0593 16.9133 18 17.0625 18H18.9375C19.0867 18 19.2298 18.0593 19.3352 18.1648C19.4407 18.2702 19.5 18.4133 19.5 18.5625V20.4375ZM19.5 14.4375C19.5 14.5867 19.4407 14.7298 19.3352 14.8352C19.2298 14.9407 19.0867 15 18.9375 15H17.0625C16.9133 15 16.7702 14.9407 16.6648 14.8352C16.5593 14.7298 16.5 14.5867 16.5 14.4375V12.5625C16.5 12.4133 16.5593 12.2702 16.6648 12.1648C16.7702 12.0593 16.9133 12 17.0625 12H18.9375C19.0867 12 19.2298 12.0593 19.3352 12.1648C19.4407 12.2702 19.5 12.4133 19.5 12.5625V14.4375ZM15.75 6H17.25C17.4489 6 17.6397 5.92098 17.7803 5.78033C17.921 5.63968 18 5.44891 18 5.25V0.75C18 0.551088 17.921 0.360322 17.7803 0.21967C17.6397 0.0790176 17.4489 0 17.25 0L15.75 0C15.5511 0 15.3603 0.0790176 15.2197 0.21967C15.079 0.360322 15 0.551088 15 0.75V5.25C15 5.44891 15.079 5.63968 15.2197 5.78033C15.3603 5.92098 15.5511 6 15.75 6ZM6.75 6H8.25C8.44891 6 8.63968 5.92098 8.78033 5.78033C8.92098 5.63968 9 5.44891 9 5.25V0.75C9 0.551088 8.92098 0.360322 8.78033 0.21967C8.63968 0.0790176 8.44891 0 8.25 0L6.75 0C6.55109 0 6.36032 0.0790176 6.21967 0.21967C6.07902 0.360322 6 0.551088 6 0.75V5.25C6 5.44891 6.07902 5.63968 6.21967 5.78033C6.36032 5.92098 6.55109 6 6.75 6Z" fill="black"/>
<path d="M22.5 5.25V9H1.5V5.25C1.5 4.65326 1.73705 4.08097 2.15901 3.65901C2.58097 3.23705 3.15326 3 3.75 3H6V5.25C6 5.44891 6.07902 5.63968 6.21967 5.78033C6.36032 5.92098 6.55109 6 6.75 6H8.25C8.44891 6 8.63968 5.92098 8.78033 5.78033C8.92098 5.63968 9 5.44891 9 5.25V3H15V5.25C15 5.44891 15.079 5.63968 15.2197 5.78033C15.3603 5.92098 15.5511 6 15.75 6H17.25C17.4489 6 17.6397 5.92098 17.7803 5.78033C17.921 5.63968 18 5.44891 18 5.25V3H20.25C20.8467 3 21.419 3.23705 21.841 3.65901C22.2629 4.08097 22.5 4.65326 22.5 5.25Z" fill="black"/>
</svg>
