<svg width="24" height="24" viewBox="0 0 24 24" fill="none" xmlns="http://www.w3.org/2000/svg">
<g clip-path="url(#clip0_2_13499)">
<path opacity="0.4" d="M18.75 15H20.25C20.4489 15 20.6397 15.079 20.7803 15.2197C20.921 15.3603 21 15.5511 21 15.75V21.75C21 22.3467 20.7629 22.919 20.341 23.341C19.919 23.7629 19.3467 24 18.75 24H2.25C1.65326 24 1.08097 23.7629 0.65901 23.341C0.237053 22.919 0 22.3467 0 21.75L0 5.25C0 4.65326 0.237053 4.08097 0.65901 3.65901C1.08097 3.23705 1.65326 3 2.25 3H9.75C9.94891 3 10.1397 3.07902 10.2803 3.21967C10.421 3.36032 10.5 3.55109 10.5 3.75V5.25C10.5 5.44891 10.421 5.63968 10.2803 5.78033C10.1397 5.92098 9.94891 6 9.75 6H3V21H18V15.75C18 15.5511 18.079 15.3603 18.2197 15.2197C18.3603 15.079 18.5511 15 18.75 15Z" fill="black"/>
<path d="M24 1.125V7.125C24 8.13141 22.7812 8.625 22.0781 7.92188L20.4042 6.24797L8.9906 17.6611C8.77962 17.8721 8.49348 17.9906 8.19513 17.9906C7.89677 17.9906 7.61064 17.8721 7.39966 17.6611L6.33888 16.6003C6.12792 16.3893 6.0094 16.1032 6.0094 15.8048C6.0094 15.5065 6.12792 15.2204 6.33888 15.0094L17.7543 3.59438L16.0804 1.92188C15.375 1.21406 15.8747 0 16.875 0H22.875C23.1733 0 23.4595 0.118526 23.6705 0.329505C23.8814 0.540483 24 0.826631 24 1.125Z" fill="black"/>
</g>
<defs>
<clipPath id="clip0_2_13499">
<rect width="24" height="24" fill="white"/>
</clipPath>
</defs>
</svg>
