<svg width="24" height="24" viewBox="0 0 24 24" fill="none" xmlns="http://www.w3.org/2000/svg">
<path opacity="0.4" d="M8.39991 11.7009V6.96398C8.3992 6.76068 8.45051 6.56057 8.54897 6.38269C8.64742 6.20482 8.78975 6.05509 8.96241 5.94774L10.2186 5.164C10.6004 4.92725 11.0406 4.80155 11.4899 4.801H15.3227L19.1998 2.56151C19.3363 2.48269 19.487 2.43153 19.6433 2.41096C19.7996 2.39039 19.9584 2.40081 20.1106 2.44162C20.2629 2.48243 20.4056 2.55284 20.5306 2.64882C20.6557 2.74481 20.7606 2.86448 20.8393 3.00101L23.8393 8.19847C23.9983 8.47399 24.0414 8.80138 23.9592 9.10867C23.8769 9.41596 23.676 9.67801 23.4006 9.83721L20.4006 11.5697V10.501C20.4006 9.94401 20.1793 9.40987 19.7855 9.01604C19.3917 8.62222 18.8575 8.40097 18.3006 8.40097H11.3999V11.7009C11.3999 12.0988 11.2419 12.4803 10.9606 12.7616C10.6792 13.0429 10.2977 13.2009 9.8999 13.2009C9.50208 13.2009 9.12055 13.0429 8.83925 12.7616C8.55794 12.4803 8.39991 12.0988 8.39991 11.7009Z" fill="black"/>
<path d="M0.16197 15.8025C0.0828041 15.6663 0.0313292 15.5157 0.0105 15.3595C-0.0103293 15.2033 -0.000102831 15.0445 0.0405924 14.8922C0.0812877 14.7399 0.151651 14.5972 0.247643 14.4722C0.343635 14.3472 0.463367 14.2424 0.599967 14.1638L3.59995 12.4313V10.6576C3.60006 10.2434 3.70756 9.83641 3.91197 9.47624C4.11638 9.11606 4.4107 8.81505 4.76619 8.6026L7.19955 7.14011V11.7008C7.19955 12.4169 7.48401 13.1037 7.99035 13.61C8.4967 14.1163 9.18345 14.4008 9.89953 14.4008C10.6156 14.4008 11.3024 14.1163 11.8087 13.61C12.315 13.1037 12.5995 12.4169 12.5995 11.7008V9.60084H18.2998C18.4181 9.60054 18.5353 9.62362 18.6446 9.66874C18.7539 9.71387 18.8533 9.78015 18.9369 9.86378C19.0205 9.94741 19.0868 10.0467 19.1319 10.1561C19.1771 10.2654 19.2001 10.3826 19.1998 10.5008V12.3008C19.2001 12.4191 19.1771 12.5363 19.1319 12.6456C19.0868 12.7549 19.0205 12.8542 18.9369 12.9379C18.8533 13.0215 18.7539 13.0878 18.6446 13.1329C18.5353 13.178 18.4181 13.2011 18.2998 13.2008H17.9998V15.6008C17.9998 15.9191 17.8734 16.2243 17.6484 16.4493C17.4233 16.6744 17.1181 16.8008 16.7999 16.8008H16.1999C16.1993 17.4371 15.9462 18.0472 15.4963 18.4972C15.0463 18.9471 14.4362 19.2002 13.7999 19.2008H8.67779L4.79994 21.4388C4.52458 21.5976 4.19744 21.6407 3.89035 21.5586C3.58325 21.4765 3.32128 21.2758 3.16195 21.0008L0.16197 15.8025Z" fill="black"/>
</svg>
