<svg width="24" height="24" viewBox="0 0 24 24" fill="none" xmlns="http://www.w3.org/2000/svg">
<path opacity="0.4" d="M14.6662 21.9995V16.6662C14.6662 16.4894 14.596 16.3198 14.4709 16.1948C14.3459 16.0698 14.1764 15.9995 13.9995 15.9995H9.99958C9.82277 15.9995 9.65321 16.0698 9.52818 16.1948C9.40316 16.3198 9.33292 16.4894 9.33292 16.6662V21.9995C9.33292 22.1763 9.26269 22.3458 9.13766 22.4709C9.01264 22.5959 8.84307 22.6661 8.66626 22.6661H3.33298C3.15617 22.6661 2.9866 22.5959 2.86158 22.4709C2.73656 22.3458 2.66632 22.1763 2.66632 21.9995V14.2941C2.74049 14.2437 2.82674 14.2154 2.89424 14.1545L11.9996 6.12462L21.1136 14.162C21.1778 14.2195 21.262 14.2454 21.3328 14.2954V21.9995C21.3328 22.1763 21.2626 22.3458 21.1375 22.4709C21.0125 22.5959 20.843 22.6661 20.6661 22.6661H15.3329C15.1561 22.6661 14.9865 22.5959 14.8615 22.4709C14.7364 22.3458 14.6662 22.1763 14.6662 21.9995Z" fill="black"/>
<path d="M21.9962 13.1629L12.4413 4.73508C12.3195 4.62763 12.1627 4.56834 12.0003 4.56834C11.8379 4.56834 11.6811 4.62763 11.5593 4.73508L2.00436 13.1633C1.87284 13.2814 1.6998 13.3425 1.5233 13.333C1.34679 13.3235 1.18127 13.2444 1.06311 13.1129L0.170623 12.1204C0.0525298 11.9889 -0.00849903 11.8159 0.000955192 11.6394C0.0104094 11.4629 0.0895727 11.2973 0.221039 11.1792L10.8876 1.76261C11.1928 1.48665 11.5897 1.33386 12.0011 1.33386C12.4126 1.33386 12.8094 1.48665 13.1147 1.76261L23.7787 11.1792C23.9103 11.2973 23.9895 11.4628 23.999 11.6393C24.0086 11.8158 23.9476 11.9889 23.8296 12.1204L22.9379 13.1129C22.8794 13.178 22.8086 13.231 22.7296 13.2688C22.6506 13.3065 22.5649 13.3283 22.4774 13.333C22.39 13.3376 22.3025 13.325 22.2199 13.2958C22.1374 13.2666 22.0614 13.2215 21.9962 13.1629Z" fill="black"/>
</svg>
