<svg width="24" height="24" viewBox="0 0 24 24" fill="none" xmlns="http://www.w3.org/2000/svg">
<path opacity="0.4" d="M20.4591 16.341C20.884 15.6756 21.4873 15.1428 22.2002 14.8035V7.39499C21.3532 6.99182 20.6648 6.31761 20.2442 5.47911C19.8075 5.4254 19.3679 5.39885 18.9279 5.39961C16.8429 5.39961 14.7051 5.94074 12.4404 6.51336C10.0633 7.11336 7.60481 7.73736 5.07131 7.73736C4.55989 7.73799 4.0488 7.71145 3.54019 7.65786C3.11534 8.32324 2.5122 8.85596 1.79944 9.19536V16.6042C2.6463 17.0075 3.33448 17.6817 3.75506 18.5201C4.19175 18.5738 4.63134 18.6004 5.07131 18.5996C7.15631 18.5996 9.29456 18.0585 11.5588 17.4855C13.9363 16.8836 16.3963 16.2615 18.9287 16.2615C19.4399 16.2609 19.9507 16.2874 20.4591 16.341ZM11.9998 15.5996C10.3427 15.5996 8.99981 13.9871 8.99981 11.9996C8.99981 10.0121 10.3431 8.39961 11.9998 8.39961C13.6566 8.39961 14.9998 10.0121 14.9998 11.9996C14.9998 13.9871 13.6562 15.5996 11.9998 15.5996Z" fill="black"/>
<path d="M23.2935 4.44223C21.8389 3.8321 20.3831 3.59998 18.9281 3.59998C14.3085 3.59998 9.69038 5.93773 5.07188 5.93773C3.9135 5.93773 2.75588 5.79073 1.5975 5.42323C1.47201 5.38316 1.3411 5.36267 1.20938 5.36248C0.5625 5.36248 0 5.86198 0 6.55535V18.4526C0 18.9262 0.271125 19.3751 0.7065 19.5573C2.16113 20.1679 3.61688 20.4 5.07188 20.4C9.69075 20.4 14.3096 18.0618 18.9285 18.0618C20.0869 18.0618 21.2445 18.2088 22.4029 18.5763C22.5283 18.6165 22.6593 18.6372 22.791 18.6375C23.4375 18.6375 24 18.1376 24 17.4442V5.54735C24 5.07335 23.7289 4.62485 23.2935 4.44223ZM11.5586 17.4859C9.29513 18.0589 7.15688 18.6 5.07188 18.6C4.6319 18.6007 4.19231 18.5742 3.75563 18.5205C3.33504 17.6821 2.64686 17.0079 1.8 16.6046V9.19535C2.51276 8.85595 3.1159 8.32323 3.54075 7.65785C4.04936 7.71144 4.56045 7.73798 5.07188 7.73735C7.60538 7.73735 10.0639 7.11523 12.441 6.51335C14.7041 5.9411 16.842 5.39998 18.927 5.39998C19.367 5.39921 19.8066 5.42576 20.2433 5.47948C20.6641 6.31809 21.3527 6.99232 22.2 7.39535V14.8046C21.4871 15.1439 20.8838 15.6767 20.4589 16.3421C19.9504 16.2885 19.4394 16.262 18.9281 16.2626C16.3946 16.2619 13.9361 16.884 11.5586 17.4859Z" fill="black"/>
</svg>
