<svg width="24" height="24" viewBox="0 0 24 24" fill="none" xmlns="http://www.w3.org/2000/svg">
<g clip-path="url(#clip0_2_16345)">
<path opacity="0.4" d="M9.75068 3.74914C11.1387 3.74915 12.4837 4.23042 13.5567 5.11096C14.6296 5.9915 15.364 7.21682 15.6348 8.57815C15.9056 9.93947 15.6959 11.3526 15.0416 12.5767C14.3873 13.8008 13.3288 14.7601 12.0465 15.2913C10.7642 15.8224 9.33732 15.8925 8.00909 15.4896C6.68086 15.0867 5.53344 14.2357 4.76231 13.0816C3.99119 11.9275 3.64408 10.5418 3.78014 9.16048C3.91619 7.77917 4.52698 6.48777 5.50845 5.50631C6.06423 4.94744 6.72535 4.50437 7.45354 4.20275C8.18172 3.90113 8.9625 3.74695 9.75068 3.74914ZM9.75068 -0.000488281C4.36622 -0.000488281 0.00164795 4.36408 0.00164795 9.74854C0.00164795 15.133 4.36622 19.4976 9.75068 19.4976C15.1351 19.4976 19.4997 15.133 19.4997 9.74854C19.4997 4.36408 15.1351 -0.000488281 9.75068 -0.000488281Z" fill="black"/>
<path d="M23.6672 22.3434L22.3407 23.6699C22.2365 23.7747 22.1127 23.8578 21.9764 23.9145C21.84 23.9712 21.6938 24.0004 21.5461 24.0004C21.3984 24.0004 21.2522 23.9712 21.1159 23.9145C20.9795 23.8578 20.8557 23.7747 20.7516 23.6699L16.0782 18.9965C15.9738 18.8917 15.8911 18.7675 15.8348 18.6307C15.7785 18.494 15.7497 18.3475 15.75 18.1996V17.4356L17.4375 15.7481H18.2016C18.3495 15.7477 18.496 15.7765 18.6327 15.8328C18.7694 15.8891 18.8937 15.9718 18.9985 16.0762L23.6719 20.7496C23.8819 20.962 23.9992 21.2488 23.9983 21.5475C23.9974 21.8461 23.8784 22.1322 23.6672 22.3434Z" fill="black"/>
</g>
<defs>
<clipPath id="clip0_2_16345">
<rect width="24" height="24" fill="white"/>
</clipPath>
</defs>
</svg>
