<svg width="24" height="24" viewBox="0 0 24 24" fill="none" xmlns="http://www.w3.org/2000/svg">
<path opacity="0.4" d="M14.2499 19.5H11.2499C11.051 19.5 10.8602 19.579 10.7195 19.7197C10.5789 19.8603 10.4999 20.0511 10.4999 20.25V21.75C10.4999 21.9489 10.5789 22.1397 10.7195 22.2803C10.8602 22.421 11.051 22.5 11.2499 22.5H14.2499C14.4488 22.5 14.6396 22.421 14.7802 22.2803C14.9209 22.1397 14.9999 21.9489 14.9999 21.75V20.25C14.9999 20.0511 14.9209 19.8603 14.7802 19.7197C14.6396 19.579 14.4488 19.5 14.2499 19.5ZM20.2499 7.5H11.2499C11.051 7.5 10.8602 7.57902 10.7195 7.71967C10.5789 7.86032 10.4999 8.05109 10.4999 8.25V9.75C10.4999 9.94891 10.5789 10.1397 10.7195 10.2803C10.8602 10.421 11.051 10.5 11.2499 10.5H20.2499C20.4488 10.5 20.6396 10.421 20.7802 10.2803C20.9209 10.1397 20.9999 9.94891 20.9999 9.75V8.25C20.9999 8.05109 20.9209 7.86032 20.7802 7.71967C20.6396 7.57902 20.4488 7.5 20.2499 7.5ZM17.2499 13.5H11.2499C11.051 13.5 10.8602 13.579 10.7195 13.7197C10.5789 13.8603 10.4999 14.0511 10.4999 14.25V15.75C10.4999 15.9489 10.5789 16.1397 10.7195 16.2803C10.8602 16.421 11.051 16.5 11.2499 16.5H17.2499C17.4488 16.5 17.6396 16.421 17.7802 16.2803C17.9209 16.1397 17.9999 15.9489 17.9999 15.75V14.25C17.9999 14.0511 17.9209 13.8603 17.7802 13.7197C17.6396 13.579 17.4488 13.5 17.2499 13.5ZM23.2499 1.5H11.2499C11.051 1.5 10.8602 1.57902 10.7195 1.71967C10.5789 1.86032 10.4999 2.05109 10.4999 2.25V3.75C10.4999 3.94891 10.5789 4.13968 10.7195 4.28033C10.8602 4.42098 11.051 4.5 11.2499 4.5H23.2499C23.4488 4.5 23.6396 4.42098 23.7802 4.28033C23.9209 4.13968 23.9999 3.94891 23.9999 3.75V2.25C23.9999 2.05109 23.9209 1.86032 23.7802 1.71967C23.6396 1.57902 23.4488 1.5 23.2499 1.5Z" fill="black"/>
<path d="M8.2501 16.5H6.0001V2.25C6.0001 2.05109 5.92108 1.86032 5.78043 1.71967C5.63977 1.57902 5.44901 1.5 5.2501 1.5H3.7501C3.55118 1.5 3.36042 1.57902 3.21977 1.71967C3.07911 1.86032 3.0001 2.05109 3.0001 2.25V16.5H0.750097C0.0849409 16.5 -0.251622 17.3081 0.220878 17.7802L3.97088 22.2802C4.11152 22.4207 4.30221 22.4997 4.50103 22.4997C4.69986 22.4997 4.89055 22.4207 5.03119 22.2802L8.78119 17.7802C9.25088 17.3091 8.91666 16.5 8.2501 16.5Z" fill="black"/>
</svg>
