<svg width="24" height="24" viewBox="0 0 24 24" fill="none" xmlns="http://www.w3.org/2000/svg">
<path opacity="0.4" d="M17.9999 6C17.9999 7.18669 17.648 8.34673 16.9888 9.33342C16.3295 10.3201 15.3924 11.0892 14.296 11.5433C13.1997 11.9974 11.9933 12.1162 10.8294 11.8847C9.66551 11.6532 8.59642 11.0818 7.7573 10.2426C6.91819 9.40353 6.34674 8.33443 6.11523 7.17054C5.88372 6.00666 6.00254 4.80026 6.45666 3.7039C6.91079 2.60754 7.67983 1.67047 8.66652 1.01118C9.65322 0.351894 10.8133 0 11.9999 0C13.5912 0 15.1174 0.632141 16.2426 1.75736C17.3678 2.88258 17.9999 4.4087 17.9999 6Z" fill="black"/>
<path d="M16.2 13.5H15.4172C14.3457 13.994 13.1799 14.2499 12 14.2499C10.8201 14.2499 9.65427 13.994 8.58281 13.5H7.8C6.12925 13.5004 4.52704 14.1642 3.34564 15.3456C2.16424 16.527 1.50037 18.1293 1.5 19.8L1.5 21.75C1.5 22.3467 1.73705 22.919 2.15901 23.341C2.58097 23.7629 3.15326 24 3.75 24H20.25C20.8467 24 21.419 23.7629 21.841 23.341C22.2629 22.919 22.5 22.3467 22.5 21.75V19.8C22.4996 18.1293 21.8358 16.527 20.6544 15.3456C19.473 14.1642 17.8708 13.5004 16.2 13.5Z" fill="black"/>
</svg>
