<svg width="24" height="24" viewBox="0 0 24 24" fill="none" xmlns="http://www.w3.org/2000/svg">
<path opacity="0.4" d="M19.5 12.75C19.2033 12.75 18.9133 12.838 18.6666 13.0028C18.42 13.1676 18.2277 13.4019 18.1142 13.676C18.0006 13.9501 17.9709 14.2517 18.0288 14.5426C18.0867 14.8336 18.2296 15.1009 18.4393 15.3107C18.6491 15.5204 18.9164 15.6633 19.2074 15.7212C19.4983 15.7791 19.7999 15.7494 20.074 15.6358C20.3481 15.5223 20.5824 15.33 20.7472 15.0834C20.912 14.8367 21 14.5467 21 14.25C21 13.8522 20.842 13.4706 20.5607 13.1893C20.2794 12.908 19.8978 12.75 19.5 12.75ZM20.25 1.5H3C2.20435 1.5 1.44129 1.81607 0.87868 2.37868C0.316071 2.94129 0 3.70435 0 4.5C0 4.89782 0.158035 5.27936 0.43934 5.56066C0.720644 5.84196 1.10218 6 1.5 6H3.75C3.55109 6 3.36032 5.92098 3.21967 5.78033C3.07902 5.63968 3 5.44891 3 5.25C3 5.05109 3.07902 4.86032 3.21967 4.71967C3.36032 4.57902 3.55109 4.5 3.75 4.5H21.75C21.9489 4.5 22.1397 4.42098 22.2803 4.28033C22.421 4.13968 22.5 3.94891 22.5 3.75C22.5 3.15326 22.2629 2.58097 21.841 2.15901C21.419 1.73705 20.8467 1.5 20.25 1.5Z" fill="black"/>
<path d="M21.6188 6H1.5C1.10218 6 0.720644 5.84196 0.43934 5.56066C0.158035 5.27936 0 4.89782 0 4.5V19.5C0 20.2956 0.316071 21.0587 0.87868 21.6213C1.44129 22.1839 2.20435 22.5 3 22.5H21.6188C22.9313 22.5 24 21.4908 24 20.25V8.25C24 7.00922 22.9322 6 21.6188 6ZM19.5 15.75C19.2033 15.75 18.9133 15.662 18.6666 15.4972C18.42 15.3324 18.2277 15.0981 18.1142 14.824C18.0006 14.5499 17.9709 14.2483 18.0288 13.9574C18.0867 13.6664 18.2296 13.3991 18.4393 13.1893C18.6491 12.9796 18.9164 12.8367 19.2074 12.7788C19.4983 12.7209 19.7999 12.7506 20.074 12.8642C20.3481 12.9777 20.5824 13.17 20.7472 13.4166C20.912 13.6633 21 13.9533 21 14.25C21 14.6478 20.842 15.0294 20.5607 15.3107C20.2794 15.592 19.8978 15.75 19.5 15.75Z" fill="black"/>
</svg>
